<mxfile host="app.diagrams.net" modified="2021-10-03T15:56:47.677Z" agent="5.0 (Windows NT 10.0; Win64; x64) AppleWebKit/537.36 (KHTML, like Gecko) Chrome/94.0.4606.61 Safari/537.36" etag="Z6pKQeVBA8J5-mplDF1A" version="15.4.1" type="github">
  <diagram id="rxNqa8dDu4IeYNs3GSMT" name="Page-1">
    <mxGraphModel dx="677" dy="564" grid="1" gridSize="10" guides="1" tooltips="1" connect="1" arrows="1" fold="1" page="1" pageScale="1" pageWidth="600" pageHeight="300" math="0" shadow="0">
      <root>
        <mxCell id="0" />
        <mxCell id="1" parent="0" />
        <mxCell id="unma6G2gE8ILpo1bqrzW-1" value="" style="rounded=0;whiteSpace=wrap;html=1;strokeColor=#66B2FF;fillColor=#dae8fc;" vertex="1" parent="1">
          <mxGeometry x="200" y="40" width="40" height="40" as="geometry" />
        </mxCell>
        <mxCell id="unma6G2gE8ILpo1bqrzW-2" value="" style="rounded=0;whiteSpace=wrap;html=1;fillColor=#dae8fc;strokeColor=#66B2FF;" vertex="1" parent="1">
          <mxGeometry x="160" y="40" width="40" height="40" as="geometry" />
        </mxCell>
        <mxCell id="unma6G2gE8ILpo1bqrzW-3" value="" style="rounded=0;whiteSpace=wrap;html=1;fillColor=#dae8fc;strokeColor=#66B2FF;" vertex="1" parent="1">
          <mxGeometry x="120" y="40" width="40" height="40" as="geometry" />
        </mxCell>
        <mxCell id="unma6G2gE8ILpo1bqrzW-5" value="" style="rounded=0;whiteSpace=wrap;html=1;strokeColor=#66B2FF;fillColor=#dae8fc;" vertex="1" parent="1">
          <mxGeometry x="240" y="40" width="40" height="40" as="geometry" />
        </mxCell>
        <mxCell id="unma6G2gE8ILpo1bqrzW-6" value="" style="rounded=0;whiteSpace=wrap;html=1;strokeColor=#66B2FF;fillColor=#dae8fc;" vertex="1" parent="1">
          <mxGeometry x="280" y="40" width="40" height="40" as="geometry" />
        </mxCell>
        <mxCell id="unma6G2gE8ILpo1bqrzW-7" value="" style="rounded=0;whiteSpace=wrap;html=1;strokeColor=#66B2FF;fillColor=#dae8fc;" vertex="1" parent="1">
          <mxGeometry x="320" y="40" width="40" height="40" as="geometry" />
        </mxCell>
        <mxCell id="unma6G2gE8ILpo1bqrzW-8" value="&lt;b&gt;&lt;font style=&quot;font-size: 20px&quot;&gt;3&lt;/font&gt;&lt;/b&gt;" style="text;html=1;strokeColor=none;fillColor=none;align=center;verticalAlign=middle;whiteSpace=wrap;rounded=0;" vertex="1" parent="1">
          <mxGeometry x="110" y="45" width="60" height="30" as="geometry" />
        </mxCell>
        <mxCell id="unma6G2gE8ILpo1bqrzW-22" value="" style="rounded=0;whiteSpace=wrap;html=1;strokeColor=#66B2FF;fillColor=#dae8fc;" vertex="1" parent="1">
          <mxGeometry x="360" y="40" width="40" height="40" as="geometry" />
        </mxCell>
        <mxCell id="unma6G2gE8ILpo1bqrzW-24" value="" style="rounded=0;whiteSpace=wrap;html=1;strokeColor=#66B2FF;fillColor=#dae8fc;" vertex="1" parent="1">
          <mxGeometry x="400" y="40" width="40" height="40" as="geometry" />
        </mxCell>
        <mxCell id="unma6G2gE8ILpo1bqrzW-27" value="&lt;b&gt;&lt;font style=&quot;font-size: 20px&quot;&gt;8&lt;/font&gt;&lt;/b&gt;" style="text;html=1;strokeColor=none;fillColor=none;align=center;verticalAlign=middle;whiteSpace=wrap;rounded=0;" vertex="1" parent="1">
          <mxGeometry x="150" y="45" width="60" height="30" as="geometry" />
        </mxCell>
        <mxCell id="unma6G2gE8ILpo1bqrzW-28" value="&lt;b&gt;&lt;font style=&quot;font-size: 20px&quot;&gt;-10&lt;/font&gt;&lt;/b&gt;&lt;span style=&quot;color: rgba(0 , 0 , 0 , 0) ; font-family: monospace ; font-size: 0px&quot;&gt;%3CmxGraphModel%3E%3Croot%3E%3CmxCell%20id%3D%220%22%2F%3E%3CmxCell%20id%3D%221%22%20parent%3D%220%22%2F%3E%3CmxCell%20id%3D%222%22%20value%3D%22%26lt%3Bb%26gt%3B%26lt%3Bfont%20style%3D%26quot%3Bfont-size%3A%2020px%26quot%3B%26gt%3B3%26lt%3B%2Ffont%26gt%3B%26lt%3B%2Fb%26gt%3B%22%20style%3D%22text%3Bhtml%3D1%3BstrokeColor%3Dnone%3BfillColor%3Dnone%3Balign%3Dcenter%3BverticalAlign%3Dmiddle%3BwhiteSpace%3Dwrap%3Brounded%3D0%3B%22%20vertex%3D%221%22%20parent%3D%221%22%3E%3CmxGeometry%20x%3D%2230%22%20y%3D%2245%22%20width%3D%2260%22%20height%3D%2230%22%20as%3D%22geometry%22%2F%3E%3C%2FmxCell%3E%3C%2Froot%3E%3C%2FmxGraphModel%3E&lt;/span&gt;" style="text;html=1;strokeColor=none;fillColor=none;align=center;verticalAlign=middle;whiteSpace=wrap;rounded=0;" vertex="1" parent="1">
          <mxGeometry x="190" y="45" width="60" height="30" as="geometry" />
        </mxCell>
        <mxCell id="unma6G2gE8ILpo1bqrzW-29" value="&lt;b&gt;&lt;font style=&quot;font-size: 20px&quot;&gt;23&lt;/font&gt;&lt;/b&gt;" style="text;html=1;strokeColor=none;fillColor=none;align=center;verticalAlign=middle;whiteSpace=wrap;rounded=0;" vertex="1" parent="1">
          <mxGeometry x="230" y="45" width="60" height="30" as="geometry" />
        </mxCell>
        <mxCell id="unma6G2gE8ILpo1bqrzW-30" value="&lt;b&gt;&lt;font style=&quot;font-size: 20px&quot;&gt;19&lt;/font&gt;&lt;/b&gt;" style="text;html=1;strokeColor=none;fillColor=none;align=center;verticalAlign=middle;whiteSpace=wrap;rounded=0;" vertex="1" parent="1">
          <mxGeometry x="270" y="45" width="60" height="30" as="geometry" />
        </mxCell>
        <mxCell id="unma6G2gE8ILpo1bqrzW-31" value="&lt;b&gt;&lt;font style=&quot;font-size: 20px&quot;&gt;-4&lt;/font&gt;&lt;/b&gt;" style="text;html=1;strokeColor=none;fillColor=none;align=center;verticalAlign=middle;whiteSpace=wrap;rounded=0;" vertex="1" parent="1">
          <mxGeometry x="310" y="45" width="60" height="30" as="geometry" />
        </mxCell>
        <mxCell id="unma6G2gE8ILpo1bqrzW-32" value="&lt;b&gt;&lt;font style=&quot;font-size: 20px&quot;&gt;-14&lt;/font&gt;&lt;/b&gt;" style="text;html=1;strokeColor=none;fillColor=none;align=center;verticalAlign=middle;whiteSpace=wrap;rounded=0;" vertex="1" parent="1">
          <mxGeometry x="350" y="45" width="60" height="30" as="geometry" />
        </mxCell>
        <mxCell id="unma6G2gE8ILpo1bqrzW-33" value="&lt;b&gt;&lt;font style=&quot;font-size: 20px&quot;&gt;27&lt;/font&gt;&lt;/b&gt;" style="text;html=1;strokeColor=none;fillColor=none;align=center;verticalAlign=middle;whiteSpace=wrap;rounded=0;" vertex="1" parent="1">
          <mxGeometry x="390" y="45" width="60" height="30" as="geometry" />
        </mxCell>
        <mxCell id="unma6G2gE8ILpo1bqrzW-34" value="" style="rounded=0;whiteSpace=wrap;html=1;strokeColor=#82b366;fillColor=#d5e8d4;" vertex="1" parent="1">
          <mxGeometry x="200" y="120" width="40" height="40" as="geometry" />
        </mxCell>
        <mxCell id="unma6G2gE8ILpo1bqrzW-35" value="" style="rounded=0;whiteSpace=wrap;html=1;fillColor=#d5e8d4;strokeColor=#82b366;" vertex="1" parent="1">
          <mxGeometry x="160" y="120" width="40" height="40" as="geometry" />
        </mxCell>
        <mxCell id="unma6G2gE8ILpo1bqrzW-36" value="" style="rounded=0;whiteSpace=wrap;html=1;fillColor=#d5e8d4;strokeColor=#82b366;" vertex="1" parent="1">
          <mxGeometry x="120" y="120" width="40" height="40" as="geometry" />
        </mxCell>
        <mxCell id="unma6G2gE8ILpo1bqrzW-37" value="" style="rounded=0;whiteSpace=wrap;html=1;strokeColor=#82b366;fillColor=#d5e8d4;" vertex="1" parent="1">
          <mxGeometry x="240" y="120" width="40" height="40" as="geometry" />
        </mxCell>
        <mxCell id="unma6G2gE8ILpo1bqrzW-38" value="" style="rounded=0;whiteSpace=wrap;html=1;strokeColor=#82b366;fillColor=#d5e8d4;" vertex="1" parent="1">
          <mxGeometry x="280" y="120" width="40" height="40" as="geometry" />
        </mxCell>
        <mxCell id="unma6G2gE8ILpo1bqrzW-39" value="" style="rounded=0;whiteSpace=wrap;html=1;strokeColor=#82b366;fillColor=#d5e8d4;" vertex="1" parent="1">
          <mxGeometry x="320" y="120" width="40" height="40" as="geometry" />
        </mxCell>
        <mxCell id="unma6G2gE8ILpo1bqrzW-40" value="&lt;b&gt;&lt;font style=&quot;font-size: 20px&quot;&gt;-14&lt;/font&gt;&lt;/b&gt;" style="text;html=1;strokeColor=none;fillColor=none;align=center;verticalAlign=middle;whiteSpace=wrap;rounded=0;" vertex="1" parent="1">
          <mxGeometry x="110" y="125" width="60" height="30" as="geometry" />
        </mxCell>
        <mxCell id="unma6G2gE8ILpo1bqrzW-41" value="" style="rounded=0;whiteSpace=wrap;html=1;strokeColor=#82b366;fillColor=#d5e8d4;" vertex="1" parent="1">
          <mxGeometry x="360" y="120" width="40" height="40" as="geometry" />
        </mxCell>
        <mxCell id="unma6G2gE8ILpo1bqrzW-42" value="" style="rounded=0;whiteSpace=wrap;html=1;strokeColor=#82b366;fillColor=#d5e8d4;" vertex="1" parent="1">
          <mxGeometry x="400" y="120" width="40" height="40" as="geometry" />
        </mxCell>
        <mxCell id="unma6G2gE8ILpo1bqrzW-43" value="&lt;b&gt;&lt;font style=&quot;font-size: 20px&quot;&gt;-10&lt;/font&gt;&lt;/b&gt;" style="text;html=1;strokeColor=none;fillColor=none;align=center;verticalAlign=middle;whiteSpace=wrap;rounded=0;" vertex="1" parent="1">
          <mxGeometry x="150" y="125" width="60" height="30" as="geometry" />
        </mxCell>
        <mxCell id="unma6G2gE8ILpo1bqrzW-44" value="&lt;b&gt;&lt;font style=&quot;font-size: 20px&quot;&gt;-4&lt;/font&gt;&lt;/b&gt;&lt;span style=&quot;color: rgba(0 , 0 , 0 , 0) ; font-family: monospace ; font-size: 0px&quot;&gt;%3CmxGraphModel%3E%3Croot%3E%3CmxCell%20id%3D%220%22%2F%3E%3CmxCell%20id%3D%221%22%20parent%3D%220%22%2F%3E%3CmxCell%20id%3D%222%22%20value%3D%22%26lt%3Bb%26gt%3B%26lt%3Bfont%20style%3D%26quot%3Bfont-size%3A%2020px%26quot%3B%26gt%3B3%26lt%3B%2Ffont%26gt%3B%26lt%3B%2Fb%26gt%3B%22%20style%3D%22text%3Bhtml%3D1%3BstrokeColor%3Dnone%3BfillColor%3Dnone%3Balign%3Dcenter%3BverticalAlign%3Dmiddle%3BwhiteSpace%3Dwrap%3Brounded%3D0%3B%22%20vertex%3D%221%22%20parent%3D%221%22%3E%3CmxGeometry%20x%3D%2230%22%20y%3D%2245%22%20width%3D%2260%22%20height%3D%2230%22%20as%3D%22geometry%22%2F%3E%3C%2FmxCell%3E%3C%2Froot%3E%3C%2FmxGraphModel%3E&lt;/span&gt;" style="text;html=1;strokeColor=none;fillColor=none;align=center;verticalAlign=middle;whiteSpace=wrap;rounded=0;" vertex="1" parent="1">
          <mxGeometry x="190" y="125" width="60" height="30" as="geometry" />
        </mxCell>
        <mxCell id="unma6G2gE8ILpo1bqrzW-45" value="&lt;b&gt;&lt;font style=&quot;font-size: 20px&quot;&gt;3&lt;/font&gt;&lt;/b&gt;" style="text;html=1;strokeColor=none;fillColor=none;align=center;verticalAlign=middle;whiteSpace=wrap;rounded=0;" vertex="1" parent="1">
          <mxGeometry x="230" y="125" width="60" height="30" as="geometry" />
        </mxCell>
        <mxCell id="unma6G2gE8ILpo1bqrzW-46" value="&lt;b&gt;&lt;font style=&quot;font-size: 20px&quot;&gt;8&lt;/font&gt;&lt;/b&gt;" style="text;html=1;strokeColor=none;fillColor=none;align=center;verticalAlign=middle;whiteSpace=wrap;rounded=0;" vertex="1" parent="1">
          <mxGeometry x="270" y="125" width="60" height="30" as="geometry" />
        </mxCell>
        <mxCell id="unma6G2gE8ILpo1bqrzW-47" value="&lt;b&gt;&lt;font style=&quot;font-size: 20px&quot;&gt;19&lt;/font&gt;&lt;/b&gt;" style="text;html=1;strokeColor=none;fillColor=none;align=center;verticalAlign=middle;whiteSpace=wrap;rounded=0;" vertex="1" parent="1">
          <mxGeometry x="310" y="125" width="60" height="30" as="geometry" />
        </mxCell>
        <mxCell id="unma6G2gE8ILpo1bqrzW-48" value="&lt;b&gt;&lt;font style=&quot;font-size: 20px&quot;&gt;23&lt;/font&gt;&lt;/b&gt;" style="text;html=1;strokeColor=none;fillColor=none;align=center;verticalAlign=middle;whiteSpace=wrap;rounded=0;" vertex="1" parent="1">
          <mxGeometry x="350" y="125" width="60" height="30" as="geometry" />
        </mxCell>
        <mxCell id="unma6G2gE8ILpo1bqrzW-49" value="&lt;b&gt;&lt;font style=&quot;font-size: 20px&quot;&gt;27&lt;/font&gt;&lt;/b&gt;" style="text;html=1;strokeColor=none;fillColor=none;align=center;verticalAlign=middle;whiteSpace=wrap;rounded=0;" vertex="1" parent="1">
          <mxGeometry x="390" y="125" width="60" height="30" as="geometry" />
        </mxCell>
        <mxCell id="unma6G2gE8ILpo1bqrzW-51" value="" style="shape=curlyBracket;whiteSpace=wrap;html=1;rounded=1;flipH=1;fontSize=20;strokeColor=#000000;fillColor=#CCCCCC;rotation=90;strokeWidth=3;" vertex="1" parent="1">
          <mxGeometry x="148.75" y="158.75" width="20" height="42.5" as="geometry" />
        </mxCell>
        <mxCell id="unma6G2gE8ILpo1bqrzW-53" value="&lt;b&gt;arr&lt;/b&gt;" style="text;html=1;strokeColor=none;fillColor=none;align=center;verticalAlign=middle;whiteSpace=wrap;rounded=0;fontSize=20;" vertex="1" parent="1">
          <mxGeometry x="60" y="45" width="60" height="30" as="geometry" />
        </mxCell>
        <mxCell id="unma6G2gE8ILpo1bqrzW-54" value="&lt;b&gt;sorted arr&lt;/b&gt;" style="text;html=1;strokeColor=none;fillColor=none;align=center;verticalAlign=middle;whiteSpace=wrap;rounded=0;fontSize=20;" vertex="1" parent="1">
          <mxGeometry x="10" y="125" width="100" height="30" as="geometry" />
        </mxCell>
        <mxCell id="unma6G2gE8ILpo1bqrzW-55" value="" style="rounded=0;whiteSpace=wrap;html=1;strokeColor=#b85450;fillColor=#f8cecc;" vertex="1" parent="1">
          <mxGeometry x="138.75" y="201.25" width="40" height="40" as="geometry" />
        </mxCell>
        <mxCell id="unma6G2gE8ILpo1bqrzW-56" value="" style="rounded=0;whiteSpace=wrap;html=1;strokeColor=#b85450;fillColor=#f8cecc;" vertex="1" parent="1">
          <mxGeometry x="178.75" y="201.25" width="40" height="40" as="geometry" />
        </mxCell>
        <mxCell id="unma6G2gE8ILpo1bqrzW-57" value="" style="rounded=0;whiteSpace=wrap;html=1;strokeColor=#b85450;fillColor=#f8cecc;" vertex="1" parent="1">
          <mxGeometry x="218.75" y="201.25" width="40" height="40" as="geometry" />
        </mxCell>
        <mxCell id="unma6G2gE8ILpo1bqrzW-59" value="" style="shape=curlyBracket;whiteSpace=wrap;html=1;rounded=1;flipH=1;fontSize=20;strokeColor=#000000;fillColor=#CCCCCC;rotation=90;strokeWidth=3;" vertex="1" parent="1">
          <mxGeometry x="190" y="158.75" width="20" height="42.5" as="geometry" />
        </mxCell>
        <mxCell id="unma6G2gE8ILpo1bqrzW-60" value="" style="shape=curlyBracket;whiteSpace=wrap;html=1;rounded=1;flipH=1;fontSize=20;strokeColor=#000000;fillColor=#CCCCCC;rotation=90;strokeWidth=3;" vertex="1" parent="1">
          <mxGeometry x="232.75" y="160" width="20" height="42.5" as="geometry" />
        </mxCell>
      </root>
    </mxGraphModel>
  </diagram>
</mxfile>
